# xmcd
# Track frame offsets:
# 150
# 11880
# 24509
# 40025
# 53828
# 67755
# 78878
# 90963
# 101768
# 114903
# 126212
# 137797
# 149673
# 165004
# 178452
#
# Disc length: 2543 seconds
# Revision: 0
# Processed by: cddbd v1.5.1PL0 Copyright (c) Steve Scherf et al.
# Submitted via: VisiTrax 2.9.10.228 - For more info visit www.synapsa.com
#
DISCID=bd09ed0f
DTITLE=Wagoner, Porter - CB90087
DYEAR=1900
DGENRE=Karaoke
TTITLE0=Y'all Come
TTITLE1=Misery Loves Company
TTITLE2=Cold Hard Facts Of Life, The
TTITLE3=Satisfied Mind, A
TTITLE4=Carroll County Accident, The
TTITLE5=Big Wind
TTITLE6=Eat, Drink And Be Merry (For Tomorrow
TTITLE7=Tryin' To Forget The Blues
TTITLE8=I've Enjoyed As Much Of This As I Can Stand
TTITLE9=Your Old Love Letters
TTITLE10=Sorrow On The Rocks
TTITLE11=I'll Go Down Swinging
TTITLE12=Skid Row Joe
TTITLE13=Company's Comin'
TTITLE14=Green, Green Grass Of Home
EXTD=
EXTT0=
EXTT1=
EXTT2=
EXTT3=
EXTT4=
EXTT5=
EXTT6=
EXTT7=
EXTT8=
EXTT9=
EXTT10=
EXTT11=
EXTT12=
EXTT13=
EXTT14=
PLAYORDER=
